<svg xmlns="http://www.w3.org/2000/svg" width="155.7" height="50.3" viewBox="0 0 155.7 50.3"><path fill="#F5EA0E" d="M23.1 19.5H0l5.8 10h25.4c-5-2.2-7.3-6-8.1-10zm-15 14l5.8 10h9.8c-1-2.7-1.5-6.1-1.7-10H8.1zm125.8-14v4h-6v6H150l5.8-10h-21.9zm-6 17c0 1.1.1 3 6 3v4h8l5.8-10h-19.8v3zM1.9 40.5"/><path fill="#A3CD3A" d="M62.3 20.4V.9h10.3v26.2l-10.3-6.7zm15.1 8.1c0-10.7 4.7-16.2 14.7-16.2.5 0 1.4 0 2.1.1-4.2 2.5-6.4 6.6-6.4 16.1v4.4c0 6.9.3 10.8 4.4 10.8h.3c-.5 2.6-3.2 5-5.6 6-6.3-1.6-9.6-6.7-9.6-15.6v-5.6zm31.4-8.7v-6.4h4.3V3.7h10.3v9.8h6.1v6.4h-20.7zm14.7 19c0 3.7.9 4.4 3.5 4.4h2.6v6.4h-7.4c-7.1 0-9-2.5-9-9.7V22.1h10.3v16.7zM47.5.7c5.1 1.3 9.6 4.6 9.6 13.9v.3H46.7v-.3c0-5.7-1.9-7.6-5.6-7.6h-.7c1.1-3 3.9-5.3 7.1-6.3z"/><path fill="#009D58" d="M62.3 49.5h10.3V30l-10.3-6.7zM36.3 49.6c2.9-1.1 5.8-3.3 7.2-6.5h-1.1c-4.2 0-5.8-2.3-5.8-9.1v-.5H26v.5c0 8.5 3.2 13.7 10.3 15.6z"/><path fill="#7AB943" d="M58.1 35.6c0-8.9-5.7-11.9-13-15.1l-4.7-2.1c-2.7-1.2-3.7-2.9-3.7-5.9C36.8 5.9 40 1.9 44 .1c-.9 0-1.8-.1-2.8-.1-8.8 0-14.7 4-14.7 12.8 0 8.2 3.8 11.5 11.4 14.9l4.2 1.9c3.5 1.6 5.6 3.6 5.6 7.3 0 7.2-4.1 11.3-7.8 13.3.9.1 1.5.1 2.5.1 9.8 0 15.7-4.9 15.7-14.7zM97.3 12.9c-2.4 1-5.2 3.4-5.7 6h.4c4.1 0 4.4 3.9 4.4 10.8v4.4c0 9.6-2.2 13.7-6.4 16.1.7.1 1.6.1 2.1.1 10.1 0 14.7-5.6 14.7-16.2v-5.6c.1-8.9-3.2-14-9.5-15.6z"/></svg>